<svg xmlns="http://www.w3.org/2000/svg" width="512" height="153" viewBox="0 0 512 153" version="1.1"><path d="M 300 69.032 C 300 102.436, 300.449 105.397, 305.684 106.548 C 307.233 106.888, 309.120 107.362, 309.877 107.601 C 312.420 108.402, 321.163 106.738, 321.695 105.352 C 321.984 104.600, 321.942 102.506, 321.603 100.697 C 321.111 98.077, 320.328 97.216, 317.743 96.455 L 314.500 95.500 314 68.668 C 313.430 38.093, 313.711 39, 304.809 39 L 300 39 300 69.032 M 423 72.893 C 423 110.251, 422.597 108.015, 429.332 107.986 C 436.813 107.954, 437 107.708, 437 97.883 C 437 89.793, 437.171 89, 438.918 89 C 442.726 89, 443.929 90.278, 446.011 96.533 C 447.175 100.030, 449.070 104.091, 450.223 105.556 C 452.024 107.846, 452.863 108.148, 456.197 107.700 C 458.331 107.414, 461.187 106.453, 462.544 105.563 C 464.952 103.985, 464.970 103.883, 463.280 101.304 C 462.327 99.850, 460.528 95.700, 459.281 92.081 C 457.810 87.811, 455.947 84.587, 453.974 82.900 C 451.231 80.554, 451.093 80.168, 452.554 78.955 C 453.959 77.789, 462 62.950, 462 61.522 C 462 60.553, 450.885 60.991, 448.930 62.038 C 447.863 62.608, 445.585 65.871, 443.866 69.288 C 440.916 75.153, 439.489 76.949, 437.750 76.985 C 437.337 76.993, 437 69.636, 437 60.635 C 437 45.593, 436.832 44.057, 434.927 41.635 C 433.189 39.425, 432.060 39, 427.927 39 L 423 39 423 72.893 M 171.250 43.672 L 166 44.105 166 75.436 L 166 106.767 168.250 107.370 C 171.130 108.141, 175.870 108.141, 178.750 107.370 C 180.889 106.797, 181 106.284, 181 96.989 L 181 87.212 188.750 86.820 C 198.606 86.322, 203.354 84.089, 207.093 78.192 C 210.635 72.607, 211.620 66.350, 210.058 59.366 C 207.613 48.442, 200.807 43.942, 186.087 43.516 C 180.814 43.364, 174.137 43.434, 171.250 43.672 M 77.571 47.571 C 76.707 48.436, 75.992 49.673, 75.983 50.321 C 75.974 50.970, 73.451 52.589, 70.377 53.920 C 64.240 56.578, 55.021 64.422, 51.524 69.962 C 46.971 77.175, 44.807 85.140, 45.166 93.365 L 45.500 101.005 40.750 101.002 C 38.138 101.001, 36 101.450, 36 102 C 36 102.654, 54.686 103, 90.059 103 C 125.844 103, 143.909 102.662, 143.500 102 C 143.158 101.447, 138.551 100.992, 133.191 100.981 L 123.500 100.962 120.500 95.992 C 117.173 90.481, 114.704 89.083, 112.178 91.279 C 109.399 93.697, 104.723 94.464, 99.248 93.403 C 97.077 92.982, 95.206 93.290, 93.618 94.331 C 90.845 96.147, 85.500 95.888, 85.500 93.937 C 85.500 93.008, 92.786 90.920, 109.250 87.130 C 136.244 80.916, 135.145 81.698, 130.369 72.113 C 123.440 58.208, 106.088 48.351, 89.929 49.140 C 86.958 49.285, 84.516 48.775, 82.956 47.682 C 79.999 45.610, 79.542 45.601, 77.571 47.571 M 135.723 50.454 C 133.505 55.106, 133.597 59.610, 136 64 C 138.395 68.374, 138.675 65.482, 136.332 60.570 C 134.764 57.281, 134.771 56.835, 136.444 53.123 C 138.708 48.103, 138.034 45.608, 135.723 50.454 M 270.400 47.765 C 268.386 49.110, 267 52.823, 267 56.874 C 267 60.780, 266.908 60.887, 263.250 61.190 C 259.518 61.498, 259.500 61.522, 259.500 66 C 259.500 70.478, 259.518 70.502, 263.250 70.810 L 267 71.121 267.004 85.310 C 267.007 97.600, 267.268 99.927, 268.952 102.689 C 271.433 106.759, 276.371 108.207, 284.838 107.348 C 291.837 106.639, 292.576 105.885, 291.565 100.492 C 290.969 97.320, 290.600 97, 287.526 97 C 281.753 97, 281 95.324, 281 82.478 L 281 71.100 286.750 70.800 L 292.500 70.500 292.500 66 L 292.500 61.500 286.750 61.200 L 281 60.900 281 53.950 L 281 47 276.250 47.015 C 273.637 47.024, 271.005 47.361, 270.400 47.765 M 78.459 49.067 C 77.515 50.594, 78.262 51.006, 80.782 50.347 C 81.990 50.031, 82.731 49.374, 82.430 48.886 C 81.674 47.664, 79.258 47.773, 78.459 49.067 M 79 52.372 C 61.572 57.417, 49.969 69.758, 46.842 86.575 C 45.598 93.263, 46.400 100.437, 48.311 99.723 C 48.965 99.479, 66.713 95.314, 87.750 90.468 C 131.050 80.494, 128.460 81.822, 123.041 72.374 C 119.717 66.579, 114.418 61.987, 107.330 58.759 C 103.490 57.010, 100.604 56.554, 93.250 56.530 C 83.302 56.498, 81.044 55.593, 88.746 54.725 C 94.855 54.037, 104.008 55.524, 109.473 58.092 C 117.880 62.044, 125.639 70.728, 127.544 78.317 C 128.187 80.881, 130.317 81.914, 131.388 80.182 C 132.415 78.519, 126.918 68.793, 122.027 63.622 C 118.551 59.947, 114.730 57.245, 109.741 54.933 C 103.358 51.976, 101.374 51.548, 93 51.324 C 87.382 51.173, 81.661 51.602, 79 52.372 M 181 65.500 L 181 76 185.277 76 C 190.573 76, 193.501 74.041, 195.002 69.493 C 196.412 65.221, 195.488 60.266, 192.718 57.250 C 191.122 55.513, 189.551 55, 185.826 55 L 181 55 181 65.500 M 139.487 60.622 C 141.416 65.240, 141.400 68.326, 139.426 72.143 C 138.561 73.816, 138.111 75.444, 138.426 75.760 C 138.742 76.075, 139.113 76.146, 139.250 75.917 C 141.473 72.211, 143 68.361, 143 66.460 C 143 63.833, 139.941 57.063, 138.737 57.025 C 138.317 57.011, 138.654 58.630, 139.487 60.622 M 225.168 62.146 C 219.495 64.954, 216.129 70.197, 214.721 78.421 C 212.625 90.654, 216.845 101.840, 225.155 106.079 C 228.566 107.819, 230.678 108.135, 236.982 107.849 C 243.608 107.548, 245.173 107.105, 248.447 104.608 C 260.931 95.086, 259.182 68.072, 245.684 61.943 C 239.836 59.288, 230.760 59.378, 225.168 62.146 M 329 61.318 C 326.707 62.156, 325.659 63.098, 325.963 64.049 C 326.217 64.847, 326.680 72.700, 326.992 81.500 C 327.585 98.224, 328.335 101.279, 332.857 105.371 C 337.261 109.356, 346.422 108.336, 352.267 103.209 C 353.885 101.790, 354.279 101.893, 356.918 104.421 C 358.726 106.154, 361.018 107.242, 363.066 107.342 C 365.763 107.472, 366.664 106.939, 368.242 104.278 C 370 101.311, 370.027 100.876, 368.576 98.805 C 367.286 96.963, 367 93.352, 367 78.887 L 367 61.219 363.500 60.810 C 361.575 60.585, 358.425 60.585, 356.500 60.810 L 353 61.219 353 76.553 C 353 91.265, 352.910 91.950, 350.777 93.443 C 348.124 95.302, 344.856 95.456, 343.200 93.800 C 342.384 92.984, 342 88.225, 342 78.911 C 342 67.343, 341.729 64.895, 340.250 63.114 C 338.010 60.416, 333.455 59.689, 329 61.318 M 386.530 62.227 C 378.741 66.746, 375.451 74.787, 376.289 87.251 C 376.936 96.861, 380.115 102.998, 386.003 106.002 C 393.156 109.651, 406.748 108.253, 412.213 103.307 C 414.597 101.149, 414.466 99.654, 411.601 96.322 L 409.202 93.533 405.567 95.267 C 400.115 97.866, 395.569 97.538, 393.073 94.365 C 391.378 92.211, 391 90.307, 391 83.930 C 391 72.703, 392.701 69.578, 398.173 70.757 C 399.977 71.145, 402 75.846, 402 79.649 C 402 81.730, 402.465 82, 406.045 82 C 411.838 82, 415.470 78.283, 414.645 73.200 C 413.977 69.083, 411.674 65.592, 407.637 62.579 C 403.347 59.375, 391.777 59.182, 386.530 62.227 M 230.334 74.742 C 229.194 77.472, 228.895 80.625, 229.230 86.406 C 229.620 93.150, 230.030 94.606, 231.984 96.188 C 234.435 98.173, 237.362 97.869, 240 95.357 C 241.134 94.277, 241.500 91.537, 241.500 84.118 C 241.500 72.879, 240.616 71, 235.327 71 C 232.311 71, 231.710 71.451, 230.334 74.742 M 112.386 93.437 C 112.083 94.227, 111.193 94.628, 110.410 94.327 C 109.626 94.026, 107.895 94.494, 106.562 95.367 C 104.409 96.778, 103.827 96.791, 101.320 95.483 C 97.656 93.572, 97.663 93.571, 94.152 96.526 C 92.134 98.224, 90.922 98.682, 90.454 97.925 C 90.051 97.273, 88.544 97.041, 86.879 97.374 C 84.484 97.853, 84 97.618, 84 95.975 C 84 94.889, 83.410 94, 82.688 94 C 80.379 94, 73.262 97.876, 72.652 99.465 C 72.132 100.819, 74.946 101, 96.531 101 C 112.335 101, 121 100.642, 121 99.990 C 121 99.435, 120.100 98.210, 119 97.268 C 117.900 96.326, 117 94.756, 117 93.778 C 117 91.611, 113.194 91.330, 112.386 93.437 M 60.500 98.487 L 51.500 100.770 61 100.877 C 70.196 100.981, 70.537 100.905, 71.656 98.492 C 73.095 95.389, 72.713 95.389, 60.500 98.487" stroke="none" fill="#ad96dc" fill-rule="evenodd"/></svg>